# xmcd
#
# Track frame offsets:
# 150
# 12971
# 27418
# 43181
# 64434
# 77744
# 91660
# 111575
# 126314
# 138678
# 156163
# 169675
#
# Disc length: 2438 seconds
#
#
# Revision: 0
# Processed by: cddbd v1.5PL3 Copyright (c) Steve Scherf et al.
# Submitted via: FreeRIP 2.53 
#
DISCID=a709840c
DTITLE=Emerson Drive - Emerson Drive
DYEAR=1900
DGENRE=
TTITLE0=Fall Into Me
TTITLE1=Evidence
TTITLE2=Passionate Desperate Love
TTITLE3=Only God (Could Stop Me Loving You)
TTITLE4=Say My Name
TTITLE5=I Should Be Sleeping
TTITLE6=Light Of Day
TTITLE7=Looking Over My Shoulder
TTITLE8=I See Heaven
TTITLE9=How Lucky I Am
TTITLE10=Hollywood Kiss
TTITLE11=It's All About You
EXTD=
EXTT0=
EXTT1=
EXTT2=
EXTT3=
EXTT4=
EXTT5=
EXTT6=
EXTT7=
EXTT8=
EXTT9=
EXTT10=
EXTT11=
PLAYORDER=
